<?xml version="1.0" encoding="UTF-8" standalone="no"?>
<svg
   viewBox="0 0 500 500"
   version="1.1"
   id="svg10"
   sodipodi:docname="html5.svg"
   inkscape:version="1.2.2 (732a01da63, 2022-12-09)"
   width="500"
   height="500"
   xmlns:inkscape="http://www.inkscape.org/namespaces/inkscape"
   xmlns:sodipodi="http://sodipodi.sourceforge.net/DTD/sodipodi-0.dtd"
   xmlns="http://www.w3.org/2000/svg"
   xmlns:svg="http://www.w3.org/2000/svg">
  <defs
     id="defs14" />
  <sodipodi:namedview
     id="namedview12"
     pagecolor="#ffffff"
     bordercolor="#666666"
     borderopacity="1.0"
     inkscape:showpageshadow="2"
     inkscape:pageopacity="0.0"
     inkscape:pagecheckerboard="0"
     inkscape:deskcolor="#d1d1d1"
     showgrid="false"
     inkscape:zoom="0.82211539"
     inkscape:cx="-25.543859"
     inkscape:cy="334.50292"
     inkscape:window-width="1920"
     inkscape:window-height="1009"
     inkscape:window-x="760"
     inkscape:window-y="-8"
     inkscape:window-maximized="1"
     inkscape:current-layer="svg10" />
  <g
     id="g242"
     transform="matrix(0.97265625,0,0,0.97265625,30.179687,-2.890625)">
    <g
       id="g301"
       transform="translate(0,4)">
      <path
         fill="#e34f26"
         d="M 41.5,460 0.5,0 h 451 l -41,460 -185,52"
         id="path2" />
      <path
         fill="#ef652a"
         d="M 226,472 375,431 410,37 H 226"
         id="path4" />
      <path
         fill="#ecedee"
         d="m 226,208 h -75 l -5,-58 h 80 V 94 H 84 l 15,171 h 127 z m 0,147 -64,-17 -4,-45 h -56 l 7,89 117,32 z"
         id="path6" />
      <path
         fill="#ffffff"
         d="m 226,265 h 69 l -7,73 -62,17 v 59 L 341,382 357,208 H 226 Z m 0,-171 v 56 h 136 l 5,-56 z"
         id="path8" />
    </g>
  </g>
</svg>
