<?xml version="1.0" encoding="UTF-8" standalone="no"?>
<svg
   viewBox="0 0 500 500"
   version="1.1"
   id="svg6"
   sodipodi:docname="js2.svg"
   inkscape:version="1.2.2 (732a01da63, 2022-12-09)"
   width="500"
   height="500"
   xmlns:inkscape="http://www.inkscape.org/namespaces/inkscape"
   xmlns:sodipodi="http://sodipodi.sourceforge.net/DTD/sodipodi-0.dtd"
   xmlns="http://www.w3.org/2000/svg"
   xmlns:svg="http://www.w3.org/2000/svg">
  <defs
     id="defs10" />
  <sodipodi:namedview
     id="namedview8"
     pagecolor="#ffffff"
     bordercolor="#666666"
     borderopacity="1.0"
     inkscape:showpageshadow="2"
     inkscape:pageopacity="0.0"
     inkscape:pagecheckerboard="0"
     inkscape:deskcolor="#d1d1d1"
     showgrid="false"
     inkscape:zoom="0.95964492"
     inkscape:cx="193.82169"
     inkscape:cy="302.19511"
     inkscape:window-width="1920"
     inkscape:window-height="1009"
     inkscape:window-x="760"
     inkscape:window-y="-8"
     inkscape:window-maximized="1"
     inkscape:current-layer="svg6" />
  <g
     id="g624"
     transform="scale(0.79047619)">
    <rect
       width="630"
       height="630"
       fill="#f7df1e"
       id="rect2"
       ry="50"
       x="0"
       y="0" />
    <path
       d="m 423.2,492.19 c 12.69,20.72 29.2,35.95 58.4,35.95 24.53,0 40.2,-12.26 40.2,-29.2 0,-20.3 -16.1,-27.49 -43.1,-39.3 l -14.8,-6.35 c -42.72,-18.2 -71.1,-41 -71.1,-89.2 0,-44.4 33.83,-78.2 86.7,-78.2 37.64,0 64.7,13.1 84.2,47.4 l -46.1,29.6 c -10.15,-18.2 -21.1,-25.37 -38.1,-25.37 -17.34,0 -28.33,11 -28.33,25.37 0,17.76 11,24.95 36.4,35.95 l 14.8,6.34 c 50.3,21.57 78.7,43.56 78.7,93 0,53.3 -41.87,82.5 -98.1,82.5 -54.98,0 -90.5,-26.2 -107.88,-60.54 z m -209.13,5.13 c 9.3,16.5 17.76,30.45 38.1,30.45 19.45,0 31.72,-7.61 31.72,-37.2 v -201.3 h 59.2 v 202.1 c 0,61.3 -35.94,89.2 -88.4,89.2 -47.4,0 -74.85,-24.53 -88.81,-54.075 z"
       id="path4" />
  </g>
</svg>
