<?xml version="1.0" encoding="UTF-8" standalone="no"?>
<svg
   fill="none"
   viewBox="0 0 500 500"
   version="1.1"
   id="svg6"
   sodipodi:docname="js.svg"
   inkscape:version="1.2.2 (732a01da63, 2022-12-09)"
   width="500"
   height="500"
   xmlns:inkscape="http://www.inkscape.org/namespaces/inkscape"
   xmlns:sodipodi="http://sodipodi.sourceforge.net/DTD/sodipodi-0.dtd"
   xmlns="http://www.w3.org/2000/svg"
   xmlns:svg="http://www.w3.org/2000/svg">
  <defs
     id="defs10" />
  <sodipodi:namedview
     id="namedview8"
     pagecolor="#ffffff"
     bordercolor="#666666"
     borderopacity="1.0"
     inkscape:showpageshadow="2"
     inkscape:pageopacity="0.0"
     inkscape:pagecheckerboard="0"
     inkscape:deskcolor="#d1d1d1"
     showgrid="false"
     inkscape:zoom="1.664"
     inkscape:cx="234.375"
     inkscape:cy="250"
     inkscape:window-width="1920"
     inkscape:window-height="1009"
     inkscape:window-x="760"
     inkscape:window-y="-8"
     inkscape:window-maximized="1"
     inkscape:current-layer="svg6" />
  <g
     id="g614"
     transform="matrix(31.125,0,0,31.125,1,1)">
    <rect
       width="16"
       height="16"
       fill="#3167ff"
       rx="2"
       id="rect2"
       x="0"
       y="0" />
    <path
       fill="#ffffff"
       d="M 4.2,9.4 H 6 V 15 H 7.5 V 9.4 H 9.4 V 8 H 4.2 Z m 5.9,5.1 c 0.6,0.4 1.5,0.6 2.4,0.6 1.6,0 2.6,-1 2.6,-2.2 0,-1.5 -1.3,-1.9 -2.3,-2.1 -0.7,-0.2 -1.3,-0.3 -1.3,-0.8 0,-0.4 0.4,-0.7 1.1,-0.7 0.8,0 1.5,0.3 2.2,0.8 V 8.4 A 4,4 0 0 0 12.6,7.9 C 11,7.9 10,8.7 10,10 c 0,1.3 1,1.7 2,2 0.8,0.2 1.5,0.3 1.5,0.9 0,0.4 -0.4,0.7 -1,0.7 -0.8,0 -1.8,-0.3 -2.4,-1 v 1.8 z"
       id="path4" />
  </g>
</svg>
